HIERARCHY
ROOT joint_Root
{
	OFFSET 0.0 0.0 0.0
	CHANNELS 6 Xposition Yposition Zposition Zrotation Xrotation Yrotation 
	JOINT Hips
	{
		OFFSET 4.5925 91.4895 -427.239
		CHANNELS 6 Xposition Yposition Zposition Zrotation Xrotation Yrotation 
		JOINT Spine
		{
			OFFSET 15.7357 0.0 0.0
			CHANNELS 6 Xposition Yposition Zposition Zrotation Xrotation Yrotation 
			JOINT Chest
			{
				OFFSET 8.98455 -0.406207 0.0
				CHANNELS 6 Xposition Yposition Zposition Zrotation Xrotation Yrotation 
				JOINT Neck
				{
					OFFSET 16.3773 0.0 0.0
					CHANNELS 6 Xposition Yposition Zposition Zrotation Xrotation Yrotation 
					JOINT Head
					{
						OFFSET 6.45672 0.0 0.0
						CHANNELS 6 Xposition Yposition Zposition Zrotation Xrotation Yrotation 
						End Site
						{
							OFFSET 0.0 0.0 0.0
						}
					}
				}
				JOINT Shoulder_L
				{
					OFFSET 12.9942 -0.242716 4.98039
					CHANNELS 6 Xposition Yposition Zposition Zrotation Xrotation Yrotation 
					JOINT UpperArm_L
					{
						OFFSET 5.34809 0.0 0.0
						CHANNELS 6 Xposition Yposition Zposition Zrotation Xrotation Yrotation 
						JOINT LowerArm_L
						{
							OFFSET 24.3286 1.87007e-05 0.0
							CHANNELS 6 Xposition Yposition Zposition Zrotation Xrotation Yrotation 
							JOINT Hand_L
							{
								OFFSET 22.2916 0.0 0.0
								CHANNELS 6 Xposition Yposition Zposition Zrotation Xrotation Yrotation 
								End Site
								{
									OFFSET 0.0 0.0 0.0
								}
							}
						}
					}
				}
				JOINT Shoulder_R
				{
					OFFSET 12.9945 -0.242716 -4.98039
					CHANNELS 6 Xposition Yposition Zposition Zrotation Xrotation Yrotation 
					JOINT UpperArm_R
					{
						OFFSET -5.34813 0.0 0.0
						CHANNELS 6 Xposition Yposition Zposition Zrotation Xrotation Yrotation 
						JOINT LowerArm_R
						{
							OFFSET -24.3289 0.000322201 0.0
							CHANNELS 6 Xposition Yposition Zposition Zrotation Xrotation Yrotation 
							JOINT Hand_R
							{
								OFFSET -22.2915 -0.000108084 0.0
								CHANNELS 6 Xposition Yposition Zposition Zrotation Xrotation Yrotation 
								End Site
								{
									OFFSET 0.0 0.0 0.0
								}
							}
						}
					}
				}
			}
		}
		JOINT UpperLeg_L
		{
			OFFSET -2.19248 -6.46944 0.0
			CHANNELS 6 Xposition Yposition Zposition Zrotation Xrotation Yrotation 
			JOINT LowerLeg_L
			{
				OFFSET 39.0811 0.0 -1.23785e-05
				CHANNELS 6 Xposition Yposition Zposition Zrotation Xrotation Yrotation 
				JOINT Foot_L
				{
					OFFSET 40.9854 0.0 -1.26872e-05
					CHANNELS 6 Xposition Yposition Zposition Zrotation Xrotation Yrotation 
					JOINT Toes_L
					{
						OFFSET 11.7543 0.0 0.0
						CHANNELS 6 Xposition Yposition Zposition Zrotation Xrotation Yrotation 
						End Site
						{
							OFFSET 0.0 0.0 0.0
						}
					}
				}
			}
		}
		JOINT UpperLeg_R
		{
			OFFSET -2.19251 6.46944 0.0
			CHANNELS 6 Xposition Yposition Zposition Zrotation Xrotation Yrotation 
			JOINT LowerLeg_R
			{
				OFFSET -39.0811 -0.00228153 -0.0401928
				CHANNELS 6 Xposition Yposition Zposition Zrotation Xrotation Yrotation 
				JOINT Foot_R
				{
					OFFSET -40.9854 0.0 0.0
					CHANNELS 6 Xposition Yposition Zposition Zrotation Xrotation Yrotation 
					JOINT Toes_R
					{
						OFFSET -11.7543 0.0 0.0
						CHANNELS 6 Xposition Yposition Zposition Zrotation Xrotation Yrotation 
						End Site
						{
							OFFSET 0.0 0.0 0.0
						}
					}
				}
			}
		}
	}
}
MOTION
Frames:	4
Frame Time:	0.0333333
0.000000 0.000000 0.000000 0.000000 0.000000 -0.000000 2.570930 90.650000 -1.786940 90.179300 -3.710960 16.587600 15.735700 0.000005 -0.000001 91.614700 84.784600 -92.244100 8.984550 -0.406207 -0.000000 2.662730 0.321692 -1.264990 16.377300 -0.000001 -0.000001 29.939600 -5.623150 2.940560 6.456720 -0.000001 -0.000000 19.128000 -8.455160 -5.408570 12.994200 -0.242716 4.980390 -86.282400 -8.195490 -65.496100 5.348090 -0.000007 -0.000001 -53.435500 -46.499900 -84.957700 24.328600 0.000019 0.000005 -2.876570 -2.680510 -47.070700 22.291600 -0.000001 0.000005 36.194600 5.030820 6.656120 12.994500 -0.242716 -4.980390 92.356600 -6.976530 -71.282500 -5.348130 -0.000001 -0.000004 -44.117300 -47.002100 -83.365600 -24.328900 0.000322 -0.000009 -5.624350 -5.850700 -44.007500 -22.291500 -0.000108 -0.000004 29.417000 5.354370 -1.508810 -2.192480 -6.469440 -0.000000 -177.263000 -10.496500 4.741650 39.081100 -0.000007 -0.000012 -0.048630 0.078849 31.664500 40.985400 -0.000006 -0.000013 1.926980 2.164550 -70.037700 11.754300 -0.000000 0.000003 -0.000053 -0.000596 -16.600700 -2.192510 6.469440 -0.000001 170.329000 16.461800 -174.435000 -39.081100 -0.002282 -0.040193 -0.094514 0.160745 31.320300 -40.985400 0.000008 0.000006 0.062400 10.123000 -69.104100 -11.754300 -0.000006 -0.000006 -0.006668 -0.076786 -19.698700
0.000000 0.000000 0.000000 0.000000 0.000000 -0.000000 2.525120 90.630200 -1.729760 90.182900 -3.631280 16.821900 15.735700 0.000005 -0.000001 91.477300 84.833500 -92.109000 8.984550 -0.406207 -0.000000 2.565450 0.294818 -1.268660 16.377300 -0.000001 -0.000001 29.064600 -5.745490 3.108870 6.456720 -0.000001 -0.000000 19.174000 -8.434240 -5.373490 12.994200 -0.242716 4.980390 -86.219800 -8.424480 -65.725100 5.348090 -0.000007 -0.000001 -48.322100 -44.298600 -85.374500 24.328600 0.000019 0.000005 3.713140 3.084040 -50.331000 22.291600 -0.000001 0.000005 35.675400 5.071840 5.751560 12.994500 -0.242716 -4.980390 92.389600 -7.152930 -71.472100 -5.348130 -0.000001 -0.000004 -40.428700 -45.300300 -84.660000 -24.328900 0.000322 -0.000009 -3.495970 -3.321850 -46.508500 -22.291500 -0.000108 -0.000004 29.928900 5.410000 -3.264680 -2.192480 -6.469440 -0.000000 -177.182000 -10.468700 4.984900 39.081100 -0.000007 -0.000012 -0.049733 0.080412 31.736600 40.985400 -0.000006 -0.000013 1.913610 2.244960 -70.110000 11.754300 -0.000000 0.000003 -0.000048 -0.000546 -16.598700 -2.192510 6.469440 -0.000001 170.248000 16.494100 -174.165000 -39.081100 -0.002282 -0.040193 -0.093175 0.158057 31.399000 -40.985400 0.000008 0.000006 0.089617 10.104000 -69.204800 -11.754300 -0.000006 -0.000006 -0.006760 -0.077588 -19.731500
0.000000 0.000000 0.000000 0.000000 0.000000 -0.000000 2.464940 90.617500 -1.693390 90.182100 -3.597330 16.956000 15.735700 0.000005 -0.000001 91.429000 84.885800 -92.063500 8.984550 -0.406207 -0.000000 2.461140 0.284237 -1.273930 16.377300 -0.000001 -0.000001 28.399300 -5.806270 3.275700 6.456720 -0.000001 -0.000000 19.127800 -8.474540 -5.349750 12.994200 -0.242716 4.980390 -86.144900 -8.650990 -65.867800 5.348090 -0.000007 -0.000001 -43.113000 -42.475600 -86.056500 24.328600 0.000019 0.000005 9.160930 6.879280 -53.394600 22.291600 -0.000001 0.000005 35.340500 5.130950 4.394960 12.994500 -0.242716 -4.980390 92.405600 -7.238420 -71.560800 -5.348130 -0.000001 -0.000004 -37.000000 -43.778900 -86.365300 -24.328900 0.000322 -0.000009 -0.927893 -0.822327 -48.430200 -22.291500 -0.000108 -0.000004 30.650900 5.482900 -5.857430 -2.192480 -6.469440 -0.000000 -177.109000 -10.445500 5.132500 39.081100 -0.000007 -0.000012 -0.052526 0.084774 31.783100 40.985400 -0.000006 -0.000013 1.874080 2.266130 -70.160100 11.754300 -0.000000 0.000003 -0.000048 -0.000543 -16.598600 -2.192510 6.469440 -0.000001 170.243000 16.457100 -174.010000 -39.081100 -0.002282 -0.040193 -0.094796 0.160391 31.450000 -40.985400 0.000008 0.000006 0.110961 10.045200 -69.280900 -11.754300 -0.000006 -0.000006 -0.006810 -0.078024 -19.749300
0.000000 0.000000 0.000000 0.000000 0.000000 -0.000000 2.391900 90.602700 -1.658980 90.169700 -3.669070 17.151600 15.735700 0.000005 -0.000001 91.754500 84.905200 -92.383200 8.984550 -0.406207 -0.000000 2.421070 0.341040 -1.263410 16.377300 -0.000001 -0.000001 27.951200 -5.840120 3.398200 6.456720 -0.000001 -0.000000 19.031900 -8.504040 -5.346360 12.994200 -0.242716 4.980390 -86.094900 -8.826430 -66.016800 5.348090 -0.000007 -0.000001 -38.006000 -41.097000 -87.006100 24.328600 0.000019 0.000005 14.928500 10.391400 -55.919000 22.291600 -0.000001 0.000005 35.358700 5.211270 2.434560 12.994500 -0.242716 -4.980390 92.437600 -7.344170 -71.580800 -5.348130 -0.000001 -0.000004 -34.152300 -42.329100 -88.378700 -24.328900 0.000322 -0.000009 2.344040 1.976690 -49.891700 -22.291500 -0.000108 -0.000004 32.131000 5.545870 -8.505940 -2.192480 -6.469440 -0.000000 -176.988000 -10.449700 5.348700 39.081100 -0.000007 -0.000012 -0.055416 0.089239 31.840100 40.985400 -0.000006 -0.000013 1.813690 2.273040 -70.221400 11.754300 -0.000000 0.000003 -0.000051 -0.000579 -16.600000 -2.192510 6.469440 -0.000001 170.226000 16.480600 -173.812000 -39.081100 -0.002282 -0.040193 -0.090593 0.153114 31.517200 -40.985400 0.000008 0.000006 0.191875 10.116400 -69.356500 -11.754300 -0.000006 -0.000006 -0.006599 -0.076183 -19.674100
